<svg width="307" height="356" viewBox="0 0 307 356" fill="none" xmlns="http://www.w3.org/2000/svg">
<path d="M186.41 3.65123C187.163 3.82284 187.916 3.99444 188.692 4.17125C199.818 6.8001 210.139 10.663 220.41 15.6512C221.035 15.9487 221.66 16.2461 222.303 16.5526C258.524 33.9889 284.255 66.1323 298.036 103.362C311.069 141.001 308.338 184.087 291.005 219.847C287.105 227.562 282.525 234.692 277.41 241.651C276.985 242.232 276.56 242.812 276.122 243.411C266.125 256.909 254.361 268.767 242.535 280.651C241.751 281.44 240.967 282.23 240.158 283.043C235.951 287.238 231.654 291.252 227.152 295.128C224.967 297.039 222.931 299.068 220.91 301.151C218.326 303.815 215.669 306.306 212.852 308.718C207.797 313.105 203.085 317.827 198.365 322.566C196.85 324.086 195.331 325.6 193.811 327.114C188.984 331.938 184.288 336.821 179.844 342.004C172.961 349.912 166.49 354.091 156.16 355.526C145.857 356.198 138.141 353.247 130.41 346.651C128.239 344.557 126.232 342.339 124.223 340.089C116.536 331.693 108.519 323.638 100.473 315.589C99.8392 314.953 99.2056 314.317 98.5528 313.662C89.4913 304.559 89.4913 304.559 79.9472 295.97C77.9954 294.295 76.1959 292.501 74.4103 290.651C71.9713 288.175 69.5029 285.831 66.8478 283.589C57.3858 275.441 48.3224 266.312 40.4103 256.651C39.9925 256.158 39.5747 255.664 39.1442 255.156C19.7643 232.251 4.87904 204.834 1.41031 174.651C1.30074 173.849 1.19117 173.048 1.07827 172.222C-3.27948 134.919 5.58589 96.3173 27.4103 65.6512C28.4951 64.0928 28.4951 64.0928 29.6017 62.5028C53.6422 29.5539 90.2416 7.76876 130.48 1.47594C148.892 -0.939078 168.289 -0.509716 186.41 3.65123ZM62.4103 59.6512C61.6021 60.3847 60.7938 61.1182 59.9611 61.8739C39.3582 81.2477 26.6327 109.807 23.4103 137.651C23.3305 138.322 23.2508 138.992 23.1686 139.682C19.3026 174.874 30.3882 207.566 52.0626 235.073C54.7403 238.362 57.5521 241.519 60.4103 244.651C61.0033 245.304 61.5962 245.958 62.2072 246.631C71.4989 256.815 81.2394 266.355 91.4103 275.651C102.912 286.191 113.996 297.131 125.035 308.151C125.742 308.855 126.449 309.559 127.177 310.285C129.229 312.331 131.277 314.381 133.324 316.432C133.934 317.04 134.544 317.648 135.173 318.275C138.939 322.062 142.485 325.977 145.933 330.057C148.09 332.385 149.357 332.643 152.535 333.151C161.074 332.049 166.697 323.257 172.278 317.196C177.973 311.04 183.86 305.083 189.785 299.151C190.712 298.22 191.639 297.288 192.594 296.329C197.164 291.768 201.79 287.357 206.69 283.153C209.046 281.096 211.229 278.892 213.41 276.651C216.227 273.758 219.108 271.02 222.164 268.386C233.523 258.531 244.327 247.647 253.41 235.651C254.153 234.714 254.895 233.777 255.66 232.811C277.333 204.952 286.863 171.362 282.692 136.249C277.796 101.049 258.816 69.2644 230.539 47.8778C179.123 10.0885 108.146 15.8874 62.4103 59.6512Z" fill="black"/>
<path d="M181.457 106.413C193.594 114.678 202.646 125.97 206.029 140.438C208.649 155.64 206.446 170.28 198.094 183.277C189.469 195.443 178.563 202.608 164.086 206.234C148.931 208.601 134.589 206.095 121.813 197.433C109.868 188.576 101.633 176.609 99.4102 161.652C98.5051 144.629 101.215 129.779 112.598 116.339C130.375 97.7566 159.165 93.5239 181.457 106.413ZM129.41 131.652C123.569 139.427 120.15 147.848 121.41 157.652C124.042 167.751 128.094 174.836 137.02 180.362C145.112 184.726 152.997 186.126 161.91 183.527C171.17 180.052 178.045 174.471 182.441 165.562C185.468 157.812 185.654 149.319 182.91 141.464C178.583 132.053 171.92 126.435 162.41 122.652C150.32 118.622 138.094 122.918 129.41 131.652Z" fill="black"/>
<circle cx="153.41" cy="152.651" r="40" fill="black"/>
</svg>
