<svg width="600" height="600" viewBox="0 0 600 600" fill="none" xmlns="http://www.w3.org/2000/svg">
<path d="M300 10C361.534 10 410.3 13.3103 448.93 21.8955C487.446 30.4555 515.271 44.1263 535.572 64.4277C555.874 84.7291 569.544 112.554 578.104 151.07C586.69 189.7 590 238.466 590 300C590 361.534 586.69 410.3 578.104 448.93C569.544 487.446 555.874 515.271 535.572 535.572C515.271 555.874 487.446 569.544 448.93 578.104C410.3 586.69 361.534 590 300 590C238.466 590 189.7 586.69 151.07 578.104C112.554 569.544 84.7291 555.874 64.4277 535.572C44.1263 515.271 30.4555 487.446 21.8955 448.93C13.3103 410.3 10 361.534 10 300C10 238.466 13.3103 189.7 21.8955 151.07C30.4555 112.554 44.1263 84.7291 64.4277 64.4277C84.7291 44.1263 112.554 30.4555 151.07 21.8955C189.7 13.3103 238.466 10 300 10Z" fill="#FFC4C4" stroke="#FF0000" stroke-width="20"/>
<path d="M383.333 216.667L200 400" stroke="#FF0000" stroke-width="20" stroke-linecap="round" stroke-linejoin="round"/>
<path d="M233.333 200H389.057C395.1 200 400 204.901 400 210.946V366.667" stroke="#FF0000" stroke-width="20" stroke-linecap="round" stroke-linejoin="round"/>
</svg>
