<svg width="620" height="620" viewBox="0 0 620 620" fill="none" xmlns="http://www.w3.org/2000/svg">
<path opacity="0.2" d="M10 310C10 62.95 62.95 10 310 10C557.05 10 610 62.95 610 310C610 557.05 557.05 610 310 610C62.95 610 10 557.05 10 310Z" fill="#39B14A"/>
<path d="M10 310C10 62.95 62.95 10 310 10C557.05 10 610 62.95 610 310C610 557.05 557.05 610 310 610C62.95 610 10 557.05 10 310Z" stroke="#39B14A" stroke-width="20"/>
<path d="M226.667 393.333L410 210" stroke="#39B14A" stroke-width="20" stroke-linecap="round" stroke-linejoin="round"/>
<path d="M376.667 410H220.944C214.9 410 210 405.1 210 399.053V243.333" stroke="#39B14A" stroke-width="20" stroke-linecap="round" stroke-linejoin="round"/>
<path d="M10 310C10 62.95 62.95 10 310 10C557.05 10 610 62.95 610 310C610 557.05 557.05 610 310 610C62.95 610 10 557.05 10 310Z" fill="#CEDDD0"/>
<path d="M10 310C10 62.95 62.95 10 310 10C557.05 10 610 62.95 610 310C610 557.05 557.05 610 310 610C62.95 610 10 557.05 10 310Z" stroke="#39B14A" stroke-width="20"/>
<path d="M226.667 393.333L410 210" stroke="#39B14A" stroke-width="20" stroke-linecap="round" stroke-linejoin="round"/>
<path d="M376.667 410H220.944C214.9 410 210 405.1 210 399.053V243.333" stroke="#39B14A" stroke-width="20" stroke-linecap="round" stroke-linejoin="round"/>
</svg>
